<?xml version="1.0" encoding="UTF-8"?>
<svg width="24px" height="24px" viewBox="0 0 24 24" version="1.1" xmlns="http://www.w3.org/2000/svg" xmlns:xlink="http://www.w3.org/1999/xlink">
    <!-- Generator: Sketch 64 (93537) - https://sketch.com -->
    <title>icon/个人中心/订单详情</title>
    <desc>Created with Sketch.</desc>
    <g id="icon/个人中心/订单详情" stroke="none" stroke-width="1" fill="none" fill-rule="evenodd">
        <g id="退出-2" transform="translate(5.000000, 4.000000)" fill="#000000" fill-rule="nonzero" opacity="0">
            <rect id="矩形" x="0" y="0" width="16" height="16"></rect>
        </g>
        <g id="订单详情-订单编号" transform="translate(5.500000, 5.500000)" fill-rule="nonzero">
            <rect id="矩形" fill="#000000" opacity="0" x="0" y="0" width="12.8" height="12.8"></rect>
            <path d="M9.4840375,2.4252125 C9.8248625,2.4252125 10.10085,2.158125 10.10085,1.8289625 L10.10085,0.6365 C10.10085,0.307125 9.82485,0.040075 9.4840375,0.040075 C9.1432,0.040075 8.8672,0.3071375 8.8672,0.6365 L8.8672,1.828975 C8.867225,2.1581375 9.143225,2.4252125 9.4840375,2.4252125 L9.4840375,2.4252125 Z M3.3159375,2.4252125 C3.656775,2.4252125 3.9327625,2.158125 3.9327625,1.8289625 L3.9327625,0.6365 C3.9327625,0.307125 3.656775,0.040075 3.3159375,0.040075 C2.9751125,0.040075 2.6991375,0.3071375 2.6991375,0.6365 L2.6991375,1.828975 C2.69915,2.1581375 2.9751375,2.4252125 3.3159375,2.4252125 L3.3159375,2.4252125 Z" id="形状" fill="#1CA2BE"></path>
            <path d="M11.745525,1.2327125 L10.71765,1.2327125 L10.71765,1.8289375 C10.71765,2.4872875 10.1653,3.0214375 9.48405,3.0214375 C8.8028,3.0214375 8.2504625,2.4872875 8.2504625,1.8289375 L8.2504625,1.2327125 L7.5925,1.2327125 C7.5925,1.21875 7.08125,1.2327125 6.4,1.2327125 C5.71875,1.2327125 5.207525,1.2389125 5.207525,1.2327125 L4.5495375,1.2327125 L4.5495375,1.8289375 C4.5495375,2.4872875 3.9975875,3.0214375 3.3159375,3.0214375 C2.6347,3.0214375 2.0823375,2.4872875 2.0823375,1.8289375 L2.0823375,1.2327125 L1.0544625,1.2327125 C0.7136375,1.2327125 0.4376375,1.4998 0.4376375,1.8289375 L0.4376375,12.1636875 C0.4376375,12.49285 0.7136375,12.759925 1.0544625,12.759925 L11.74555,12.759925 C12.086375,12.759925 12.3623625,12.49285 12.3623625,12.163675 L12.3623625,1.82895 C12.3623625,1.4998125 12.0863375,1.232725 11.745525,1.232725 L11.745525,1.2327125 Z M9.0727125,10.7724375 L3.7272625,10.7724375 C3.481225,10.7724375 3.2817125,10.5729125 3.2817125,10.3270125 C3.2817125,10.0809625 3.481225,9.8814375 3.7272625,9.8814375 L9.0727,9.8814375 C9.3187625,9.8814375 9.518275,10.0809625 9.518275,10.3270125 C9.518275,10.5729125 9.318775,10.7724375 9.0727125,10.7724375 Z M9.0727125,8.47 L3.7272625,8.47 C3.481225,8.47 3.2817125,8.270475 3.2817125,8.024575 C3.2817125,7.778525 3.481225,7.579 3.7272625,7.579 L9.0727,7.579 C9.3187625,7.579 9.518275,7.778525 9.518275,8.024575 C9.518275,8.270475 9.318775,8.47 9.0727125,8.47 Z M9.0727125,6.16755 L3.7272625,6.16755 C3.481225,6.16755 3.2817125,5.968025 3.2817125,5.722125 C3.2817125,5.4760875 3.481225,5.276575 3.7272625,5.276575 L9.0727,5.276575 C9.3187625,5.276575 9.518275,5.476075 9.518275,5.722125 C9.518275,5.9680375 9.318775,6.16755 9.0727125,6.16755 Z" id="形状" fill="#1CA2BE"></path>
        </g>
    </g>
</svg>