<?xml version="1.0" encoding="UTF-8"?>
<svg width="24px" height="24px" viewBox="0 0 24 24" version="1.1" xmlns="http://www.w3.org/2000/svg" xmlns:xlink="http://www.w3.org/1999/xlink">
    <!-- Generator: Sketch 64 (93537) - https://sketch.com -->
    <title>icon/个人中心/退出</title>
    <desc>Created with Sketch.</desc>
    <g id="icon/个人中心/退出" stroke="none" stroke-width="1" fill="none" fill-rule="evenodd">
        <g id="退出-2" transform="translate(5.000000, 4.000000)" fill-rule="nonzero">
            <rect id="矩形" fill="#000000" opacity="0" x="0" y="0" width="16" height="16"></rect>
            <path d="M7.30171875,6.19640625 L11.1709375,6.19640625 L11.1709375,3.37359375 C11.1709375,2.8359375 10.7435938,2.3990625 10.2170313,2.3990625 L3.53734375,2.3990625 C3.0103125,2.3990625 2.58296875,2.8359375 2.58296875,3.37359375 L2.58296875,12.6265625 C2.58296875,13.1642188 3.0109375,13.6010938 3.53734375,13.6010938 L10.2171875,13.6010938 C10.74375,13.6010938 11.1710938,13.1642188 11.1710938,12.6265625 L11.1710938,9.80359375 L7.30171875,9.80359375 L7.30171875,6.19640625 Z M15.0855029,7.65397175 L13.3370492,5.8299062 C13.1459625,5.630556 12.8294509,5.62385708 12.6301007,5.81494374 C12.5317197,5.90924665 12.4760938,6.03962056 12.4760938,6.1758992 L12.4760938,6.6753125 L12.4760938,6.6753125 L7.77,6.6753125 L7.77,9.32515625 L12.4760938,9.32515625 L12.4760938,9.82365875 C12.4760938,10.0998011 12.6999514,10.3236588 12.9760938,10.3236588 C13.1123547,10.3236588 13.2427133,10.2680472 13.337014,10.1696885 L15.0854677,8.34599449 C15.2708938,8.15258911 15.2709093,7.847396 15.0855029,7.65397175 Z" id="形状" fill="#1CA2BE"></path>
        </g>
    </g>
</svg>