<?xml version="1.0" encoding="UTF-8"?>
<svg width="24px" height="24px" viewBox="0 0 24 24" version="1.1" xmlns="http://www.w3.org/2000/svg" xmlns:xlink="http://www.w3.org/1999/xlink">
    <!-- Generator: Sketch 64 (93537) - https://sketch.com -->
    <title>icon/个人中心/发票管理</title>
    <desc>Created with Sketch.</desc>
    <g id="icon/个人中心/发票管理" stroke="none" stroke-width="1" fill="none" fill-rule="evenodd">
        <g id="审批模型-发票" transform="translate(4.000000, 4.000000)" fill-rule="nonzero">
            <rect id="矩形" fill="#000000" opacity="0" x="0" y="0" width="16" height="16"></rect>
            <path d="M14.1309088,7.44000087 C14.6036364,7.08000126 14.8399993,6.48000249 14.8399993,5.88000196 L14.8399993,3.59999328 C14.8399993,2.9399934 14.3081814,2.39999398 13.6581812,2.39999398 L3.02181752,2.39999398 C2.37181726,2.39999398 1.83999934,2.9399934 1.83999934,3.59999328 L1.83999934,5.87999669 C1.83999934,6.47999546 2.07636228,7.07999599 2.5490899,7.4399956 C2.84454488,7.67999476 3.02181752,7.97999502 3.02181752,8.39999398 C3.02181752,8.81999295 2.84454488,9.11999321 2.5490899,9.35999237 C2.07636228,9.71999198 1.83999934,10.3199908 1.83999934,10.9199913 L1.83999934,13.1999947 C1.83999934,13.8599946 2.37181726,14.399994 3.02181752,14.399994 L13.658176,14.399994 C14.3081762,14.399994 14.8399993,13.8599946 14.8399993,13.1999947 L14.8399993,10.9199913 C14.8399993,10.3199925 14.6036312,9.71999198 14.1309036,9.35999237 C13.8354486,9.11999321 13.658176,8.81999295 13.658176,8.39999398 C13.658176,7.97999502 13.8354486,7.67999476 14.1309036,7.4399956 L14.1309088,7.44000087 Z M10.0283077,8.97141636 C10.3659699,8.97141636 10.5910775,9.19998699 10.5910775,9.54284376 C10.5910775,9.88570054 10.3659699,10.1142712 10.0283077,10.1142712 L8.9027666,10.1142712 L8.9027666,11.2571276 C8.9027666,11.5999844 8.67765904,11.828555 8.33999686,11.828555 C8.00233469,11.828555 7.77722712,11.5999844 7.77722712,11.2571276 L7.77722712,10.1142712 L6.651686,10.1142712 C6.31402383,10.1142712 6.08891626,9.88570054 6.08891626,9.54284376 C6.08891626,9.19998699 6.31402383,8.97141636 6.651686,8.97141636 L7.77722712,8.97141636 L7.77722712,8.39998896 L6.651686,8.39998896 C6.31402383,8.39998896 6.08891626,8.17141834 6.08891626,7.82856156 C6.08891626,7.48570479 6.31402383,7.25713416 6.651686,7.25713416 L7.77722712,7.25713416 L7.77722712,7.19999142 L6.37030195,5.77142209 C6.14519439,5.54285146 6.14519439,5.19999469 6.37030195,4.97142239 C6.59540952,4.74285176 6.93307169,4.74285176 7.15818091,4.97142239 L8.33999851,6.1714211 L9.52181447,4.97142624 C9.74692203,4.74285561 10.0845842,4.74285561 10.3096934,4.97142624 C10.534801,5.19999686 10.534801,5.54285364 10.3096934,5.77142594 L8.90276166,7.19999527 L8.90276166,7.25713801 L10.0283028,7.25713801 C10.365965,7.25713801 10.5910775,7.48570864 10.5910775,7.82856541 C10.5910775,8.17142219 10.365965,8.39999281 10.0283028,8.39999281 L8.90276166,8.39999281 L8.90276166,8.97142021 L10.0283028,8.97142021 L10.0283077,8.97141636 Z" id="形状" fill="#1CA2BE"></path>
        </g>
    </g>
</svg>