<?xml version="1.0" encoding="UTF-8"?>
<svg width="24px" height="24px" viewBox="0 0 24 24" version="1.1" xmlns="http://www.w3.org/2000/svg" xmlns:xlink="http://www.w3.org/1999/xlink">
    <!-- Generator: Sketch 64 (93537) - https://sketch.com -->
    <title>icon/个人中心/我的</title>
    <desc>Created with Sketch.</desc>
    <g id="icon/个人中心/我的" stroke="none" stroke-width="1" fill="none" fill-rule="evenodd">
        <g id="个人" transform="translate(4.000000, 4.000000)" fill-rule="nonzero">
            <rect id="矩形" fill="#000000" opacity="0" x="0" y="0" width="16" height="16"></rect>
            <path d="M8.37046587,7.97963365 C9.86016333,7.81513618 11.0663327,6.6088214 11.2308103,5.11894432 C11.4469809,3.15750783 9.91812212,1.5 8.0007828,1.5 C6.20562688,1.5 4.7503914,2.9538443 4.7503914,4.74921668 L4.7503914,4.75078332 C4.7503914,6.66835382 6.40926586,8.19583032 8.37046587,7.97963365 Z M8.0007828,8.92901904 C5.83124445,8.92901904 1.5,10.1729332 1.5,12.6435286 L1.5,14.0362738 C1.5,14.2932032 1.70833834,14.5 1.96367029,14.5 L14.0363289,14.5 C14.2932273,14.5 14.5,14.2916365 14.5,14.0362738 L14.5,12.6435286 C14.5015656,10.1744999 10.1703212,8.92901904 8.0007828,8.92901904 Z" id="形状" fill="#1CA2BE"></path>
        </g>
    </g>
</svg>