<?xml version="1.0" encoding="UTF-8"?>
<svg width="24px" height="24px" viewBox="0 0 24 24" version="1.1" xmlns="http://www.w3.org/2000/svg" xmlns:xlink="http://www.w3.org/1999/xlink">
    <!-- Generator: Sketch 64 (93537) - https://sketch.com -->
    <title>icon/个人中心/应用管理</title>
    <desc>Created with Sketch.</desc>
    <g id="icon/个人中心/应用管理" stroke="none" stroke-width="1" fill="none" fill-rule="evenodd">
        <g id="应用" transform="translate(4.000000, 4.000000)" fill-rule="nonzero">
            <rect id="矩形" fill="#000000" opacity="0" x="0" y="0" width="16" height="16"></rect>
            <path d="M7.65789394,11.4210534 C7.65789394,13.1215326 6.27941446,14.5 4.5789546,14.5 C2.87849475,14.5 1.5,13.1215326 1.5,11.4210534 C1.5,9.72058959 2.87849473,8.34210687 4.57895459,8.34210687 L6.63157574,8.34210687 L7.65789394,8.34210687 L7.65789394,9.36842748 L7.65789394,11.4210534 L7.65789394,11.4210534 Z M8.34212133,11.4210534 C8.34212133,13.1215326 9.72060081,14.5 11.4210607,14.5 C13.1215205,14.5 14.5,13.1215325 14.5,11.4210534 C14.5,9.72058959 13.1215205,8.34210687 11.4210607,8.34210687 L9.36843953,8.34210687 L8.34212133,8.34210687 L8.34212133,9.36842748 L8.34212133,11.4210534 L8.34212133,11.4210534 Z M7.65789394,4.57894656 C7.65789394,2.87846745 6.27941446,1.5 4.5789546,1.5 C2.87849475,1.5 1.5,2.87846746 1.5,4.57894656 C1.5,6.27942567 2.87849473,7.65789313 4.57895459,7.65789313 L6.63157574,7.65789313 L7.65789394,7.65789313 L7.65789394,6.63157253 L7.65789394,4.57894656 L7.65789394,4.57894656 Z M8.34212133,4.57894656 L8.34212133,4.57894656 C8.34212133,2.87846745 9.72060081,1.5 11.4210607,1.5 C13.1215205,1.5 14.5,2.87848271 14.5,4.57894656 C14.5,6.27941041 13.1215205,7.65789313 11.4210607,7.65789313 L9.36843953,7.65789313 L8.34212133,7.65789313 L8.34212133,6.63157253 L8.34212133,4.57894656 L8.34212133,4.57894656 Z" id="形状" fill="#1CA2BE"></path>
        </g>
    </g>
</svg>