<?xml version="1.0" encoding="UTF-8"?>
<svg width="24px" height="24px" viewBox="0 0 24 24" version="1.1" xmlns="http://www.w3.org/2000/svg" xmlns:xlink="http://www.w3.org/1999/xlink">
    <!-- Generator: Sketch 64 (93537) - https://sketch.com -->
    <title>icon/个人中心/购物车</title>
    <desc>Created with Sketch.</desc>
    <g id="icon/个人中心/购物车" stroke="none" stroke-width="1" fill="none" fill-rule="evenodd">
        <g id="166购物车" transform="translate(4.000000, 4.000000)" fill-rule="nonzero">
            <rect id="矩形" fill="#000000" opacity="0" x="0" y="0" width="16" height="16"></rect>
            <path d="M6.02837487,12.6945671 C6.2224733,12.6945671 6.40151238,12.7304909 6.57553166,12.8040491 C6.74787768,12.8776072 6.89847129,12.9768252 7.03233228,13.1085456 C7.16452001,13.2368448 7.26658901,13.3908037 7.33853929,13.5687118 C7.41048957,13.7449093 7.44562808,13.9330813 7.44562808,14.128096 C7.44562808,14.326532 7.41048957,14.509572 7.33853929,14.6874801 C7.26658901,14.8636776 7.16619327,15.0176365 7.03233228,15.1476463 C6.90014455,15.2759454 6.74787768,15.3785847 6.57553166,15.4606962 C6.40318564,15.5376756 6.21912678,15.5787314 6.02837487,15.5787314 C5.82758339,15.5787314 5.64017801,15.5376756 5.47452504,15.4606962 C5.30552554,15.3837167 5.15827845,15.2810774 5.02441747,15.1476463 C4.89222974,15.0159259 4.79016074,14.8653883 4.71821046,14.6874801 C4.64626018,14.5112827 4.61112167,14.3231106 4.61112167,14.128096 C4.61112167,13.9330813 4.64626018,13.7466199 4.71821046,13.5687118 C4.79016074,13.3925144 4.89055648,13.2385554 5.02441747,13.1085456 C5.15660519,12.9802465 5.30552554,12.8776072 5.47452504,12.8040491 C5.64352453,12.7304909 5.82758339,12.6945671 6.02837487,12.6945671 Z M12.3583263,12.7236483 C12.5524248,12.7236483 12.7364836,12.759572 12.9121762,12.8331302 C13.0878687,12.9066884 13.2434821,13.0059063 13.3689768,13.1376268 C13.4944715,13.2659259 13.5948672,13.4198848 13.6751838,13.5977929 C13.7504806,13.7739904 13.7906389,13.9621625 13.7906389,14.1571771 C13.7906389,14.3556131 13.7504806,14.5386532 13.6751838,14.7165613 C13.599887,14.8927587 13.4994912,15.0467177 13.3689768,15.1767275 C13.2401356,15.3050266 13.0878687,15.4076659 12.9121762,15.4897773 C12.7364836,15.5701781 12.5490782,15.6078125 12.3583263,15.6078125 C12.1642279,15.6078125 11.9851888,15.5667568 11.8111695,15.4897773 C11.6388235,15.4127978 11.4882299,15.3101585 11.361062,15.1767275 C11.2355673,15.0484283 11.1351716,14.8944694 11.054855,14.7165613 C10.9795582,14.5403638 10.9393999,14.3521918 10.9393999,14.1571771 C10.9393999,13.9587411 10.9795582,13.7757011 11.054855,13.5977929 C11.1301518,13.4215955 11.2305475,13.2676365 11.361062,13.1376268 C11.4865566,13.0093277 11.6371503,12.9066884 11.8111695,12.8331302 C11.980169,12.759572 12.1642279,12.7236483 12.3583263,12.7236483 Z M14.9100514,3.8932475 C15.194506,3.8932475 15.4137034,3.93430321 15.57099,4.01128269 C15.7282767,4.08826216 15.8403853,4.18405883 15.9056425,4.29867272 C15.9708997,4.4132866 16.0026917,4.53303244 15.9959987,4.66304222 C15.9926521,4.79134134 15.9742463,4.90595522 15.9424543,4.99661993 C15.9140088,5.0889953 15.8487516,5.28400996 15.7517024,5.57311064 C15.6546531,5.86392198 15.5475644,6.18381446 15.4254162,6.5276561 C15.3032681,6.87320839 15.1844664,7.21876069 15.0690113,7.56089168 C14.9535562,7.90302267 14.8648733,8.17159549 14.8029626,8.37003146 C14.6707749,8.78572061 14.5051219,9.07139999 14.2993106,9.23391221 C14.0985192,9.39642443 13.8458566,9.47682521 13.5547089,9.47682521 L5.57492078,9.47682521 L5.80081119,10.8761409 L13.4643527,10.8761409 C13.9495988,10.8761409 14.1938951,11.0899728 14.1938951,11.5125046 C14.1938951,11.7177832 14.1470438,11.8991126 14.0499946,12.0496502 C13.9529453,12.2001879 13.7621934,12.273746 13.4777388,12.273746 L5.51468333,12.273746 C5.31389185,12.273746 5.14154583,12.2258477 5.00433832,12.1334723 C4.86713081,12.041097 4.75334897,11.9162191 4.6629928,11.7691028 C4.57263663,11.6185652 4.49733983,11.456053 4.44379543,11.2798555 C4.39025104,11.1036581 4.34339969,10.9377245 4.31495423,10.7837656 C4.30491466,10.7204713 4.27479593,10.5699337 4.23296438,10.3321527 C4.18611303,10.092661 4.13256864,9.79500703 4.06396488,9.4391908 C3.99536112,9.08337457 3.92341084,8.68308132 3.84476751,8.24173234 C3.76277766,7.80038337 3.68246106,7.3590344 3.60047121,6.9108428 C3.40637278,5.86392198 3.19052193,4.69896597 2.94622563,3.41255346 L1.80673398,3.41255346 C1.65614036,3.41255346 1.5256259,3.37149774 1.42523016,3.29451827 C1.32483442,3.2175388 1.2411713,3.12174212 1.17424081,3.01568151 C1.10898358,2.9061996 1.06213223,2.79158572 1.0370333,2.66670791 C1.01193436,2.5418301 0.996875,2.42721621 0.996875,2.32457692 C0.996875,2.11929833 1.06547876,1.94652218 1.20101301,1.80966978 C1.33822052,1.67452804 1.52395264,1.6078125 1.75486284,1.6078125 L3.29259094,1.6078125 C3.49338242,1.6078125 3.65903539,1.63689363 3.77783702,1.70018787 C3.89998517,1.7634821 3.99703439,1.84046157 4.06563814,1.93112628 C4.13758842,2.02350165 4.18778629,2.12271964 4.21623175,2.22535893 C4.24467721,2.32799823 4.27312267,2.41695228 4.29152856,2.49051045 C4.31328097,2.57433254 4.33168685,2.68894642 4.35343926,2.83948405 C4.37519168,2.99002169 4.39359756,3.14398063 4.41534997,3.29965023 C4.44379543,3.48782228 4.47726068,3.68112628 4.50570614,3.89153684 L14.9100514,3.8932475 Z" id="形状" fill="#1CA2BE"></path>
        </g>
    </g>
</svg>