<?xml version="1.0" encoding="UTF-8"?>
<svg width="110px" height="110px" viewBox="0 0 110 110" version="1.1" xmlns="http://www.w3.org/2000/svg" xmlns:xlink="http://www.w3.org/1999/xlink">
    <!-- Generator: Sketch 58 (84663) - https://sketch.com -->
    <title>实际业务</title>
    <desc>Created with Sketch.</desc>
    <g id="实际业务" stroke="none" stroke-width="1" fill="none" fill-rule="evenodd">
        <g id="编组" transform="translate(17.000000, 17.000000)" fill="#00A3AE" fill-rule="nonzero" stroke="#00A3AE" stroke-width="0.5">
            <path d="M31.0891692,21.6027529 L59.6621575,21.6027529 C60.8056869,21.6027529 61.5680398,20.754 61.5680398,19.4935765 C61.5680398,18.2280706 60.8056869,17.3844 59.6621575,17.3844 L31.0891692,17.3844 C29.9456398,17.3844 29.1832616,18.2280706 29.1832616,19.4935765 C29.1782045,20.754 29.9405575,21.6027529 31.0891692,21.6027529 Z M31.0891692,34.2781411 L59.6621575,34.2781411 C60.8056869,34.2781411 61.5680398,33.4344705 61.5680398,32.174047 C61.5680398,30.9085411 60.8056869,30.0597882 59.6621575,30.0597882 L31.0891692,30.0597882 C29.9456398,30.0597882 29.1832616,30.9085411 29.1832616,32.174047 C29.1782045,33.4344705 29.9405575,34.2832235 31.0891692,34.2832235 L31.0891692,34.2730588 L31.0891692,34.2781411 Z" id="形状"></path>
            <path d="M71.0872869,46.9687765 L69.1864869,46.9687765 L69.1864869,5.53235293 C69.1864869,2.36096466 67.0925575,0.45 64.2362751,0.45 L25.5595692,0.45 C22.6982045,0.45 19.6487927,2.36096474 19.6487927,5.53235293 L19.6487927,8.9172 L12.0252633,8.9172 C9.16898101,8.9172 6.31778101,12.0835059 6.31778101,15.4683529 L6.31778101,46.9789411 L6.69387515,46.9789411 C3.45133394,46.9789411 0.595051611,49.3015764 0.595051611,52.0511294 L0.595051611,71.5012941 C0.595051611,74.2457647 3.45133394,76.5734823 6.69387515,76.5734823 L71.0872869,76.5734823 C74.3298281,76.5734823 76.8049412,74.2508471 76.8049412,71.5012941 L76.8049412,52.0511294 C76.8100163,49.3015765 74.1366987,46.9738588 71.0872869,46.9738588 L71.0872869,46.9687765 Z M25.5544869,4.6836 L64.2362751,4.6836 C64.9986281,4.6836 65.3798045,4.6836 65.3798045,5.53235293 L65.3798045,46.9687765 L47.0884163,46.9687765 L46.7123222,48.4477411 C45.5687928,53.0980941 42.9005575,54.7854353 37.9452633,54.7854353 C33.0001339,54.7854353 30.3217339,52.8795529 29.1883692,48.4477411 L28.8071927,46.9738588 L23.4707077,46.9738588 L23.4707077,5.52727052 C23.4656399,4.67851759 24.7921339,4.67851759 25.5544869,4.67851759 L25.5544869,4.6836 Z M10.1295457,15.4683529 C10.1295457,14.6246823 11.2679927,13.1457176 12.0303457,13.1457176 L19.6538751,13.1457176 L19.6538751,46.9687765 L10.1244633,46.9687765 L10.1244633,15.4683529 L10.1295457,15.4683529 Z M71.0872869,72.3398823 L6.69387515,72.3398823 C5.35721635,72.3398823 4.59486342,71.4962117 4.40681627,71.4962117 L4.40681627,52.2493411 C4.9799131,51.5821321 5.8143355,51.1964435 6.69387515,51.1922117 L25.930581,51.1922117 C27.8415457,56.4778588 31.8413575,59.2324941 37.940181,59.2324941 C44.0390045,59.2324941 48.0388163,56.6913176 49.949781,51.2023765 L71.0923692,51.2023765 C72.2308163,51.2023765 72.9931945,51.8325882 72.9931945,52.046047 L72.9931945,71.2878353 C72.9982515,71.7045882 72.2358986,72.3398823 71.0872869,72.3398823 L71.0872869,72.3398823 Z" id="形状"></path>
        </g>
    </g>
</svg>