<?xml version="1.0" encoding="UTF-8"?>
<svg width="110px" height="110px" viewBox="0 0 110 110" version="1.1" xmlns="http://www.w3.org/2000/svg" xmlns:xlink="http://www.w3.org/1999/xlink">
    <!-- Generator: Sketch 58 (84663) - https://sketch.com -->
    <title>非入侵式</title>
    <desc>Created with Sketch.</desc>
    <g id="非入侵式" stroke="none" stroke-width="1" fill="none" fill-rule="evenodd">
        <g transform="translate(9.000000, 10.000000)">
            <g id="编组-29" transform="translate(29.350000, 0.000000)" fill="#00A3AE">
                <rect id="矩形" x="0" y="0" width="4.2" height="15.75" rx="2.1"></rect>
                <rect id="矩形备份-15" x="15.225" y="0" width="4.2" height="15.75" rx="2.1"></rect>
                <rect id="矩形备份-16" x="30.45" y="0" width="4.2" height="15.75" rx="2.1"></rect>
            </g>
            <g id="编组-29" transform="translate(29.350000, 74.550000)" fill="#00A3AE">
                <rect id="矩形" x="0" y="0" width="4.2" height="15.75" rx="2.1"></rect>
                <rect id="矩形备份-15" x="15.225" y="0" width="4.2" height="15.75" rx="2.1"></rect>
                <rect id="矩形备份-16" x="30.45" y="0" width="4.2" height="15.75" rx="2.1"></rect>
            </g>
            <g id="编组-29" transform="translate(84.350000, 45.850000) rotate(-270.000000) translate(-84.350000, -45.850000) translate(66.850000, 37.850000)" fill="#00A3AE">
                <rect id="矩形" x="0" y="0" width="4.2" height="15.75" rx="2.1"></rect>
                <rect id="矩形备份-15" x="15.225" y="0" width="4.2" height="15.75" rx="2.1"></rect>
                <rect id="矩形备份-16" x="30.45" y="0" width="4.2" height="15.75" rx="2.1"></rect>
            </g>
            <g id="编组-29" transform="translate(8.750000, 45.850000) rotate(-270.000000) translate(-8.750000, -45.850000) translate(-8.750000, 37.850000)" fill="#00A3AE">
                <rect id="矩形" x="0" y="0" width="4.2" height="15.75" rx="2.1"></rect>
                <rect id="矩形备份-15" x="15.225" y="0" width="4.2" height="15.75" rx="2.1"></rect>
                <rect id="矩形备份-16" x="30.45" y="0" width="4.2" height="15.75" rx="2.1"></rect>
            </g>
            <path d="M26.1369042,14.7 L15.7,24.9925392 L15.7,75.6 L67.2197297,75.6 L76.6,66.2011441 L76.6,14.7 L26.1369042,14.7 Z" id="矩形" stroke="#00A3AE" stroke-width="4.2"></path>
            <rect id="矩形" stroke="#00A3AE" stroke-width="4.2" x="30.4" y="29.4" width="32.55" height="32.55" rx="6.3"></rect>
            <path d="M36.175,37.036084 L57.5195312,55.65" id="路径-57" stroke="#00A3AE" stroke-width="4.2" stroke-linecap="round"></path>
            <path d="M36.175,37.036084 L57.5195312,55.65" id="路径-57" stroke="#00A3AE" stroke-width="4.2" stroke-linecap="round" transform="translate(46.847266, 46.343042) scale(-1, 1) translate(-46.847266, -46.343042) "></path>
        </g>
    </g>
</svg>