<?xml version="1.0" encoding="UTF-8"?>
<svg width="110px" height="110px" viewBox="0 0 110 110" version="1.1" xmlns="http://www.w3.org/2000/svg" xmlns:xlink="http://www.w3.org/1999/xlink">
    <!-- Generator: Sketch 58 (84663) - https://sketch.com -->
    <title>投资少</title>
    <desc>Created with Sketch.</desc>
    <g id="投资少" stroke="none" stroke-width="1" fill="none" fill-rule="evenodd">
        <g id="降低成本i-con" transform="translate(4.000000, 4.000000)" fill="#00A3AE" fill-rule="nonzero">
            <path d="M87.6698322,49.8392407 C83.4882682,45.2003704 77.7318163,42.2812065 71.5185232,41.6487236 L68.3532331,41.4238238 L70.487305,38.9082781 C71.206159,37.588033 71.3669224,36.1503403 71.5360156,34.6301843 L71.5585058,34.4302734 L71.6418029,25.2526961 C71.6418029,23.9641036 71.3411003,22.8446024 70.6672267,21.6251458 L70.6522333,21.5976581 L70.458151,21.0145845 L70.5039644,20.8996358 C70.8005021,20.1558005 70.9154521,19.617707 70.9154521,18.9838227 C70.9154521,17.3087358 70.0391666,15.7419339 68.3107516,14.3275642 C66.6739634,12.9889939 64.3124904,11.8095195 61.2929703,10.8232923 C55.6845761,8.98577771 48.0412336,7.93457944 40.3237566,7.93457944 C32.6062796,7.93457944 24.96377,8.98577771 19.3545429,10.8182945 C16.3341898,11.8045217 13.9735497,12.9839962 12.3367616,14.3225664 C10.6083466,15.7386021 9.73206105,17.3029051 9.73206105,18.978825 C9.73206105,19.6801791 9.8744991,20.3523796 10.1318872,20.8704821 L10.1918611,20.9962594 L9.99361397,21.5951592 L9.97862049,21.6226469 C9.30474689,22.8446024 9.00404434,23.9632706 9.00404434,25.255195 L9.00404434,34.4502645 C9.00404434,35.9620908 9.5463085,37.4947412 10.5300473,38.7666745 L10.6716524,38.9499262 L10.1202256,39.8736812 C9.37055161,41.2347414 9.00321137,42.4683584 9.00321137,43.644501 L9.00321137,52.8404035 C9.00321137,54.2039625 9.44968386,55.5891786 10.4076006,57.1909649 L10.5242165,57.386711 L9.96612592,58.136377 C9.21645196,59.4907735 8.8582744,60.7185597 8.8582744,61.8922035 L8.8582744,71.085607 C8.8582744,74.8980749 12.0502195,78.4681508 17.8460323,81.1394605 C23.7243091,83.8490865 31.6550267,85.3409217 40.1779867,85.3409217 C43.7481007,85.3409217 50.5651359,84.5712647 50.6334395,84.563768 L50.8000337,84.5446099 L50.9166497,84.6653894 C53.2121694,87.047787 55.9553713,88.9536565 58.9889723,90.2737238 C62.1246146,91.6448928 65.5106459,92.3505685 68.932981,92.3461544 C82.839433,92.3461544 94.1528461,80.975367 94.1528461,66.9982616 C94.2336648,60.6655967 91.9179309,54.5363908 87.6698322,49.8392407 Z M21.2537169,14.9314617 C26.3514999,13.3696577 33.171867,12.5083748 40.4695265,12.5083748 C56.0752395,12.5083748 66.9505098,16.379983 66.9505098,19.8542682 C66.9505098,21.5660055 64.3024948,23.361039 59.6845032,24.7770747 C54.5892191,26.3430436 47.7663531,27.2009946 40.4695265,27.2009946 C24.8638135,27.2009946 13.988543,23.3293864 13.988543,19.8551012 C13.9877103,18.1425309 16.6365583,16.3474974 21.2537169,14.9314617 Z M13.4071294,25.9432217 L13.9768816,26.4638231 C16.1942506,28.4895871 19.9642777,30.165507 24.87964,31.3099971 C29.4684776,32.3786875 34.8094881,32.9434359 40.3237566,32.9434359 C45.8380251,32.9434359 51.1790356,32.3786875 55.7678732,31.3099971 C60.6824025,30.165507 64.4540955,28.4895871 66.6706316,26.4638231 L67.2403838,25.9432217 L67.2403838,34.3044961 C67.2403838,37.0940864 64.4674231,39.9469819 59.6336919,42.1343406 C54.4875967,44.459971 47.6297458,45.7402338 40.3237566,45.7402338 C33.0177673,45.7402338 26.1632484,44.459971 21.0138212,42.1343406 C16.182589,39.9503137 13.4071294,37.0974183 13.4071294,34.3044961 L13.4071294,25.9432217 Z M49.4747768,51.1036773 L49.0183086,51.7283989 C46.9776988,54.5092739 45.5626239,57.6985572 44.8701127,61.0775664 C44.8276312,61.3274551 44.775154,61.5890052 44.7201779,61.8622168 C44.5827377,62.5377491 44.4402996,63.2374374 44.4402996,63.9337938 L44.4402996,64.2736423 L44.1004474,64.2736423 C43.6006648,64.2736423 43.0559017,64.3102927 42.5252991,64.34611 C41.9946966,64.3819274 41.4249443,64.4202437 40.9051704,64.4202437 C33.5925174,64.4202437 26.7088444,63.1399808 21.5235995,60.8143504 C16.6423891,58.6261588 13.8436063,55.7732633 13.8436063,52.9845059 L13.6845088,43.4054409 L14.2759182,43.9826836 C16.6782068,46.3266392 20.3649368,48.2849333 24.9379479,49.6468265 C29.5942562,51.0337085 35.0660432,51.7675482 40.7643983,51.7675482 C43.5040401,51.7675482 46.1520552,51.4718466 48.7117753,51.1844746 L49.4747768,51.1036773 Z M48.3510988,79.8883513 C45.7833889,80.1901418 43.1998329,80.3370091 40.6144635,80.3281554 C33.2185134,80.3281554 26.2973567,79.2644627 21.1229404,77.3294915 C16.2175738,75.4969747 13.4046305,73.0605603 13.4046305,70.6433041 L13.4046305,62.7884708 L13.9568903,63.2291078 C18.975541,67.2348229 29.1894323,69.7262127 40.6119646,69.7262127 C41.7697944,69.7262127 42.7693597,69.7262127 43.909697,69.5829432 L44.2345558,69.5421281 L44.2878659,69.8644845 C44.7260087,72.5041416 45.5906327,74.9197319 46.8584146,77.0437855 L46.8709092,77.0671084 C47.2557418,77.8400973 47.7738498,78.5331219 48.5501789,79.3161063 L49.0432978,79.8158836 L48.3510988,79.8883513 Z M83.8098443,81.6300752 C79.8990451,85.5908104 74.6638219,87.7723383 69.0829158,87.7723383 C63.2521183,87.7723383 57.8569647,85.4025609 53.8786948,81.0994783 C52.9899147,80.204877 52.2444056,79.1561776 51.5238856,78.1424626 L51.51389,78.1274693 C49.3834821,74.7533557 48.2567788,70.8428705 48.2652548,66.8524932 L48.2652548,66.7067248 C48.2652548,65.5172549 48.4144046,64.3202882 48.5585086,63.1616378 C48.7076104,62.1112725 49.0058141,61.0617402 49.294855,60.0463593 L49.2998528,60.0297 C51.8288372,52.5216555 58.4140692,47.1101414 66.2699725,46.0842472 C67.1670823,45.934314 68.0650251,45.934314 68.9354799,45.934314 L69.6751582,45.934314 C75.0511535,46.1500512 80.0872966,48.4223721 83.8664863,52.3322965 C87.6454579,56.2213067 89.7574904,61.4315489 89.7530929,66.8541592 C89.8238954,72.4275091 87.7123138,77.6776697 83.8098443,81.6300752 L83.8098443,81.6300752 Z" id="形状"></path>
            <path d="M79.3617788,64.9758294 C78.9376169,64.6577114 78.4044543,64.5211185 77.8795807,64.5960997 C77.3547071,64.6710808 76.8811174,64.9514939 76.562996,65.3756513 L72.1649087,71.239705 L72.1649087,53.247722 C72.1649087,52.1436444 71.2698675,51.2486127 70.1657782,51.2486127 C69.0616888,51.2486127 68.1666476,52.1436444 68.1666476,53.247722 L68.1666476,71.239705 L63.7685603,65.3756513 C63.1061067,64.4923893 61.853049,64.313383 60.9697776,64.9758295 C60.0865062,65.638276 59.9074979,66.8913203 60.5699514,67.7745824 L68.5664737,78.4364982 C68.9440183,78.9398856 69.5365372,79.2361419 70.1657782,79.2361419 C70.7950191,79.2361419 71.387538,78.9398856 71.7650826,78.4364982 L79.7616049,67.7745824 C80.0797263,67.350425 80.2163207,66.8172681 80.1413387,66.2924001 C80.0663568,65.7675321 79.7859407,65.2939475 79.3617788,64.9758294 L79.3617788,64.9758294 Z" id="路径"></path>
        </g>
    </g>
</svg>