<?xml version="1.0" encoding="UTF-8"?>
<svg width="110px" height="110px" viewBox="0 0 110 110" version="1.1" xmlns="http://www.w3.org/2000/svg" xmlns:xlink="http://www.w3.org/1999/xlink">
    <!-- Generator: Sketch 58 (84663) - https://sketch.com -->
    <title>回报快</title>
    <desc>Created with Sketch.</desc>
    <g id="回报快" stroke="none" stroke-width="1" fill="none" fill-rule="evenodd">
        <g id="编组" transform="translate(12.000000, 12.000000)" fill="#00A3AE" fill-rule="nonzero">
            <path d="M56.7493112,40.5004499 C50.5489313,40.5004499 45.5004361,35.4519548 45.5004361,29.2515748 C45.5004361,23.0511949 50.5489313,18.0026997 56.7493112,18.0026997 C62.9496911,18.0026997 67.9981863,23.0511949 67.9981863,29.2515748 C67.9981863,35.4519548 62.9496911,40.5004499 56.7493112,40.5004499 Z M56.7493112,22.5022497 C53.0281833,22.5022497 49.9999861,25.530447 49.9999861,29.2515748 C49.9999861,32.9727027 53.0281833,36.0008999 56.7493112,36.0008999 C60.4704391,36.0008999 63.4986363,32.9727027 63.4986363,29.2515748 C63.4986363,25.530447 60.4704391,22.5022497 56.7493112,22.5022497 Z" id="形状"></path>
            <path d="M3.55937954,84.2834823 C3.07976256,84.2834823 2.60752425,84.0953439 2.25334549,83.7448898 C1.74790292,83.2394982 1.57819232,82.4832553 1.82537955,81.8118592 C7.50330713,66.2037434 13.4726943,58.2871713 19.5638304,58.2871713 C21.5745325,58.2871713 23.4524176,59.1503949 25.1532133,60.8473302 C27.8390686,63.5329147 27.934992,66.2074323 27.5439197,67.9781474 C26.3116729,73.5411441 18.4533326,78.989782 4.19026042,84.1765016 C3.98365619,84.2502814 3.76967321,84.2871713 3.55937954,84.2871713 L3.55937954,84.2834823 Z M19.3433544,62.7822218 C17.75718,62.7822218 15.889019,64.1726532 13.9439526,66.8029394 C12.0309302,69.388373 10.1082946,73.0726959 8.21449852,77.7822218 C12.4923627,76.0618032 15.9306761,74.3157545 18.4653508,72.5761133 C21.8844378,70.2277579 22.8970259,68.4112265 23.1437641,67.3027259 C23.3905024,66.1942253 22.9931577,65.133781 21.9292993,64.070133 C21.0641133,63.205118 20.2181536,62.7854256 19.34015,62.7854256 L19.3433544,62.7822218 Z" id="形状"></path>
            <path d="M83.7466115,0.00449956055 C72.0702791,0.00449956055 61.6673194,1.98430154 52.8167044,5.88991104 C45.5229338,9.11158884 39.2775584,13.6291371 34.2515609,19.3255675 C33.3156545,20.3874613 32.4472414,21.4628537 31.6418219,22.5427458 C27.7632097,22.7992201 23.7946066,24.3425658 19.8350026,27.1322868 C16.4828378,29.490051 13.1171744,32.7567244 9.82350377,36.8378162 C4.28905722,43.6951305 0.887397354,50.4579542 0.743411768,50.7414259 C0.252960811,51.7268274 0.545431543,52.9237077 1.43634251,53.5671433 C1.83230287,53.8551145 2.29575655,53.9946006 2.75471067,53.9946006 C3.33065311,53.9946006 3.90659545,53.7741227 4.34305186,53.3421658 C4.36554957,53.3196681 6.5163345,51.2048796 10.1834678,49.130587 C13.2071655,47.4207579 17.8686993,45.4094591 23.5066355,45.0539946 C24.9329928,48.7031297 29.0140848,53.0676933 30.971389,55.0249975 C32.9286933,56.9823018 37.2932568,61.0633937 40.9423919,62.4897511 C40.5869274,68.1276872 38.5756286,72.7892211 36.8657996,75.8129187 C34.7870074,79.4845515 32.6767184,81.630837 32.6587203,81.6488351 C31.8802982,82.4272573 31.781308,83.660134 32.4247437,84.5555445 C32.8612,85.1584842 33.5451316,85.4914509 34.2515609,85.4914509 C34.5935267,85.4914509 34.9354926,85.4149585 35.2549606,85.2529747 C35.5384322,85.1089891 42.3012559,81.7073292 49.1585702,76.1728827 C53.2396621,72.879212 56.5063355,69.5135486 58.8640996,66.1613839 C61.6538207,62.1972802 63.1926668,58.2331767 63.4536407,54.3545646 C64.5290331,53.5536446 65.6044256,52.6852315 66.670819,51.7448255 C72.3672494,46.7188281 76.8847976,40.4734526 80.1064754,33.179682 C84.0120848,24.3335667 85.9918869,13.9261074 85.9918869,2.249775 L85.9918869,0 L83.7421119,0 L83.7466115,0.00449956055 Z M9.98548751,44.1360864 C14.2735587,37.9132087 20.8294031,30.1964803 28.2176643,27.7712229 C25.2974564,32.8872113 23.7856075,37.5847415 23.2411619,40.5634437 C18.0261834,40.8829118 13.531133,42.3992601 9.98548751,44.1360864 L9.98548751,44.1360864 Z M41.8692992,76.0018998 C43.6061255,72.4562544 45.1224739,67.9657034 45.4374424,62.7552245 C48.4116449,62.2107789 53.1136747,60.6989302 58.2251635,57.7832217 C55.7954066,65.1579842 48.0831777,71.7138287 41.8647995,76.0018998 L41.8692992,76.0018998 Z M63.6966164,48.3746625 C54.3375524,56.6313369 44.6455215,58.4986501 43.250661,58.4986501 C43.2416619,58.4986501 42.3192542,58.4806518 39.8355026,56.7303269 C38.1031758,55.5109488 36.0828779,53.7741226 34.1570704,51.8483152 C32.231263,49.9225077 30.4944367,47.9022098 29.2750587,46.169883 C27.5247337,43.6861314 27.5067355,42.7637236 27.5067355,42.7547246 C27.5067355,41.359864 29.3740487,31.6678332 37.6307231,22.3087692 C47.511735,11.1138886 62.6347227,4.99000104 81.4743388,4.53554648 C81.0198842,23.3751625 74.9004962,38.4981502 63.7011161,48.3791621 L63.6966164,48.3746625 Z" id="形状"></path>
        </g>
    </g>
</svg>